<?xml version="1.0" encoding="utf-8"?>
<!-- Generator: Adobe Illustrator 24.1.0, SVG Export Plug-In . SVG Version: 6.00 Build 0)  -->
<svg version="1.1" id="Layer_1" xmlns="http://www.w3.org/2000/svg" xmlns:xlink="http://www.w3.org/1999/xlink" x="0px" y="0px"
	 viewBox="0 0 1439 360" style="enable-background:new 0 0 1439 360;" xml:space="preserve">
<style type="text/css">
	.st0{opacity:0.8;}
	.st1{fill-rule:evenodd;clip-rule:evenodd;fill:#FFF0EC;}
</style>
<g transform="translate(-171 -373)" class="st0">
	<path class="st1" d="M109.9,1014.3L109.9,1014.3c60.6,60.6,158.9,60.6,219.5,0l281.1-281.1c60.6-60.6,60.6-158.9,0-219.5l0,0
		c-60.6-60.6-158.9-60.6-219.5,0L109.9,794.8C49.3,855.4,49.3,953.7,109.9,1014.3z"/>
	<path class="st1" d="M1173.9,611.3L1173.9,611.3c60.6,60.6,158.9,60.6,219.5,0l281.1-281.1c60.6-60.6,60.6-158.9,0-219.5l0,0
		c-60.6-60.6-158.9-60.6-219.5,0l-281.1,281.1C1113.3,452.4,1113.3,550.7,1173.9,611.3z"/>
</g>
</svg>
